<svg xmlns="http://www.w3.org/2000/svg" width="134.125" height="38.303" viewBox="0 0 134.125 38.303">
  <g id="logo" transform="translate(6.125 -4.222)">
    <text id="VIZMO." transform="translate(53 31.574)" fill="#fff" font-size="21" font-family="SegoeUI-Bold, Segoe UI" font-weight="700"><tspan x="0" y="0">VIZMO.</tspan></text>
    <g id="Logo_Icon" data-name="Logo Icon" transform="translate(-4.722 2.222)">
      <g id="Group_45" data-name="Group 45" transform="translate(-1.403 2)">
        <path id="Path_64" data-name="Path 64" d="M145.754,145.533a1.461,1.461,0,0,0,.711-.186l4.507-2.5a1.463,1.463,0,0,0,0-2.558l-4.506-2.5a1.463,1.463,0,0,0-2.173,1.279v5.007a1.468,1.468,0,0,0,1.463,1.465Zm-.054-6.472a.048.048,0,0,1,.027-.047.054.054,0,0,1,.028-.008.051.051,0,0,1,.026.008l4.506,2.5a.054.054,0,0,1,0,.094l-4.506,2.5a.054.054,0,0,1-.08-.047v-5.007Z" transform="translate(-130.738 -129.566)" fill="#fff"/>
        <path id="Path_65" data-name="Path 65" d="M45.128,52.1H2.963A2.967,2.967,0,0,0,0,55.068V81.421a2.967,2.967,0,0,0,2.963,2.963H18.626L17.472,89H15.01a.7.7,0,1,0,0,1.409H33.081a.7.7,0,1,0,0-1.409H30.619l-1.154-4.615H45.128a2.967,2.967,0,0,0,2.963-2.963V55.068A2.966,2.966,0,0,0,45.128,52.1ZM2.963,53.514H45.128a1.556,1.556,0,0,1,1.554,1.554v24.9h-12.9V75.4a.048.048,0,0,1,.048-.048h9.035a.048.048,0,0,1,.048.048v2.259a.7.7,0,0,0,1.409,0V75.4a1.459,1.459,0,0,0-1.457-1.457H33.834A1.459,1.459,0,0,0,32.376,75.4v4.566H1.409v-24.9a1.556,1.556,0,0,1,1.554-1.554ZM29.167,89H18.924l1.154-4.615h7.935Zm15.961-6.024H2.963a1.556,1.556,0,0,1-1.554-1.554v-.048H46.682v.048A1.556,1.556,0,0,1,45.128,82.976Z" transform="translate(0 -52.105)" fill="#fff"/>
        <path id="Path_66" data-name="Path 66" d="M41.538,108.653H65.632A1.459,1.459,0,0,0,67.09,107.2V93.642a1.459,1.459,0,0,0-1.457-1.457H46.056a.7.7,0,0,0,0,1.409H65.632a.048.048,0,0,1,.048.048V107.2a.049.049,0,0,1-.048.049H41.538a.049.049,0,0,1-.048-.049V93.642a.048.048,0,0,1,.048-.048h1.506a.7.7,0,0,0,0-1.409H41.538a1.459,1.459,0,0,0-1.457,1.457V107.2A1.459,1.459,0,0,0,41.538,108.653Z" transform="translate(-36.316 -88.42)" fill="#fff"/>
        <path id="Path_67" data-name="Path 67" d="M346.15,99.617h9.035a1.459,1.459,0,0,0,1.457-1.457V93.642a1.459,1.459,0,0,0-1.457-1.457H346.15a1.459,1.459,0,0,0-1.457,1.457V98.16A1.459,1.459,0,0,0,346.15,99.617Zm-.049-5.975a.049.049,0,0,1,.049-.048h9.035a.049.049,0,0,1,.048.048V98.16a.049.049,0,0,1-.048.048H346.15a.049.049,0,0,1-.049-.048Z" transform="translate(-312.317 -88.42)" fill="#fff"/>
        <path id="Path_68" data-name="Path 68" d="M346.15,195.81h9.035a1.459,1.459,0,0,0,1.457-1.457v-4.518a1.459,1.459,0,0,0-1.457-1.457H346.15a1.459,1.459,0,0,0-1.457,1.457v4.518A1.459,1.459,0,0,0,346.15,195.81Zm-.049-5.975a.049.049,0,0,1,.049-.048h9.035a.049.049,0,0,1,.048.048v4.518a.049.049,0,0,1-.048.049H346.15a.049.049,0,0,1-.049-.049Z" transform="translate(-312.317 -175.578)" fill="#fff"/>
        <path id="Path_69" data-name="Path 69" d="M40.785,285.982h25.6a.7.7,0,1,0,0-1.409h-25.6a.7.7,0,1,0,0,1.409Z" transform="translate(-36.316 -262.738)" fill="#fff"/>
        <path id="Path_70" data-name="Path 70" d="M40.785,318.046H43.8a.7.7,0,1,0,0-1.409H40.785a.7.7,0,1,0,0,1.409Z" transform="translate(-36.316 -291.79)" fill="#fff"/>
        <path id="Path_71" data-name="Path 71" d="M118.466,316.637H104.913a.7.7,0,0,0,0,1.409h13.553a.7.7,0,1,0,0-1.409Z" transform="translate(-94.421 -291.79)" fill="#fff"/>
      </g>
    </g>
  </g>
</svg>
