<svg xmlns="http://www.w3.org/2000/svg" width="75" height="86.352" viewBox="0 0 75 86.352">
  <g id="Footer_Logo" data-name="Footer Logo" transform="translate(-58 49.778)">
    <text id="VIZMO." transform="translate(58 31.574)" fill="#191818" font-size="21" font-family="SegoeUI-Bold, Segoe UI" font-weight="700" opacity="0.61"><tspan x="0" y="0">VIZMO.</tspan></text>
    <g id="Logo_Icon" data-name="Logo Icon" transform="translate(64.125 -54.675)">
      <g id="Group_6" data-name="Group 6" transform="translate(0 0)">
        <g id="Logo_Icon-2" data-name="Logo Icon" transform="translate(1.278 2.897)">
          <g id="Group_45" data-name="Group 45" transform="translate(-1.403 2)">
            <path id="Path_64" data-name="Path 64" d="M146.066,147.23a1.773,1.773,0,0,0,.863-.226l5.47-3.039a1.776,1.776,0,0,0,0-3.1l-5.469-3.039a1.776,1.776,0,0,0-2.638,1.552v6.077a1.781,1.781,0,0,0,1.775,1.778ZM146,139.374a.058.058,0,0,1,.032-.057.066.066,0,0,1,.034-.01.062.062,0,0,1,.031.009l5.469,3.039a.066.066,0,0,1,0,.115l-5.469,3.039a.066.066,0,0,1-.1-.057v-6.077Z" transform="translate(-127.841 -127.85)" fill="rgba(25,24,24,0.16)"/>
            <path id="Path_65" data-name="Path 65" d="M54.773,52.1H3.6A3.6,3.6,0,0,0,0,55.7V87.687a3.6,3.6,0,0,0,3.6,3.6h19.01l-1.4,5.6H18.218a.855.855,0,1,0,0,1.71H40.151a.855.855,0,1,0,0-1.71H37.163l-1.4-5.6h19.01a3.6,3.6,0,0,0,3.6-3.6V55.7A3.6,3.6,0,0,0,54.773,52.1ZM3.6,53.815H54.773A1.889,1.889,0,0,1,56.659,55.7V85.918H41.006V80.376a.059.059,0,0,1,.059-.059H52.031a.059.059,0,0,1,.059.059v2.742a.855.855,0,0,0,1.71,0V80.376a1.771,1.771,0,0,0-1.769-1.769H41.065A1.771,1.771,0,0,0,39.3,80.376v5.542H1.71V55.7A1.889,1.889,0,0,1,3.6,53.815ZM35.4,96.884H22.969l1.4-5.6H34Zm19.372-7.311H3.6A1.889,1.889,0,0,1,1.71,87.687v-.059H56.659v.059A1.889,1.889,0,0,1,54.773,89.573Z" transform="translate(0 -52.105)" fill="rgba(25,24,24,0.16)"/>
            <path id="Path_66" data-name="Path 66" d="M41.85,112.172H71.093a1.771,1.771,0,0,0,1.769-1.769V93.954a1.771,1.771,0,0,0-1.769-1.769H47.333a.855.855,0,0,0,0,1.71h23.76a.059.059,0,0,1,.059.059V110.4a.059.059,0,0,1-.059.059H41.85a.059.059,0,0,1-.059-.059V93.954a.059.059,0,0,1,.059-.059h1.828a.855.855,0,0,0,0-1.71H41.85a1.771,1.771,0,0,0-1.769,1.769V110.4A1.771,1.771,0,0,0,41.85,112.172Z" transform="translate(-35.512 -87.616)" fill="rgba(25,24,24,0.16)"/>
            <path id="Path_67" data-name="Path 67" d="M346.462,101.206h10.966a1.771,1.771,0,0,0,1.769-1.769V93.954a1.771,1.771,0,0,0-1.769-1.769H346.462a1.771,1.771,0,0,0-1.769,1.769v5.483A1.771,1.771,0,0,0,346.462,101.206Zm-.059-7.252a.059.059,0,0,1,.059-.059h10.966a.059.059,0,0,1,.059.059v5.483a.059.059,0,0,1-.059.059H346.462a.059.059,0,0,1-.059-.059Z" transform="translate(-305.397 -87.616)" fill="rgba(25,24,24,0.16)"/>
            <path id="Path_68" data-name="Path 68" d="M346.462,197.4h10.966a1.771,1.771,0,0,0,1.769-1.769v-5.483a1.771,1.771,0,0,0-1.769-1.769H346.462a1.771,1.771,0,0,0-1.769,1.769v5.483A1.771,1.771,0,0,0,346.462,197.4Zm-.059-7.252a.059.059,0,0,1,.059-.059h10.966a.059.059,0,0,1,.059.059v5.483a.059.059,0,0,1-.059.059H346.462a.059.059,0,0,1-.059-.059Z" transform="translate(-305.397 -172.842)" fill="rgba(25,24,24,0.16)"/>
            <path id="Path_69" data-name="Path 69" d="M40.936,286.283H72.007a.855.855,0,1,0,0-1.71H40.936a.855.855,0,1,0,0,1.71Z" transform="translate(-35.512 -258.071)" fill="rgba(25,24,24,0.16)"/>
            <path id="Path_70" data-name="Path 70" d="M40.936,318.347h3.655a.855.855,0,1,0,0-1.71H40.936a.855.855,0,1,0,0,1.71Z" transform="translate(-35.512 -286.48)" fill="rgba(25,24,24,0.16)"/>
            <path id="Path_71" data-name="Path 71" d="M121.514,316.637h-16.45a.855.855,0,0,0,0,1.71h16.45a.855.855,0,1,0,0-1.71Z" transform="translate(-92.329 -286.48)" fill="rgba(25,24,24,0.16)"/>
          </g>
        </g>
      </g>
    </g>
  </g>
</svg>
