<svg xmlns="http://www.w3.org/2000/svg" width="218.325" height="221.917" viewBox="0 0 218.325 221.917">
  <g id="ImageUpload" transform="translate(-9.37 -148.067)">
    <path id="Path_27" data-name="Path 27" d="M31.247,149.245c32.905,0,55.5,17.045,71.358,17.045s49.156-9.115,49.156-82.057S106.962.583,89.522.583C7.856.583-27.029,149.245,31.247,149.245Z" transform="matrix(-0.809, -0.588, 0.588, -0.809, 131.804, 371.801)" fill="#def3ff"/>
    <g id="monitor" transform="translate(48.152 153.096)">
      <g id="Group_43" data-name="Group 43" transform="translate(2.058 54.163)">
        <path id="Path_50" data-name="Path 50" d="M222.66,380.25H196.269l-4.4,19.793h35.188Z" transform="translate(-141.288 -292.28)" fill="#dad8db"/>
        <path id="Path_51" data-name="Path 51" d="M231.079,389.047l-1.955-8.8H202.733l-1.955,8.8Z" transform="translate(-147.752 -292.28)" fill="#c8c5c9"/>
        <path id="Path_52" data-name="Path 52" d="M137.255,149.774H14.1a6.6,6.6,0,0,1-6.6-6.6V66.2a6.6,6.6,0,0,1,6.6-6.6H137.255a6.6,6.6,0,0,1,6.6,6.6v76.974a6.6,6.6,0,0,1-6.6,6.6Z" transform="translate(-7.5 -59.605)" fill="#eceaec"/>
        <path id="Path_53" data-name="Path 53" d="M137.255,59.6H14.1a6.6,6.6,0,0,0-6.6,6.6v74.774H143.853V66.2a6.6,6.6,0,0,0-6.6-6.6Z" transform="translate(-7.5 -59.605)" fill="#fff"/>
        <path id="Path_54" data-name="Path 54" d="M120.156,99.685H49.78a2.2,2.2,0,0,0-2.2,2.2V141.47a2.2,2.2,0,0,0,2.2,2.2h70.376a2.2,2.2,0,0,0,2.2-2.2V101.884A2.2,2.2,0,0,0,120.156,99.685Z" transform="translate(-36.585 -88.689)" fill="#49b1ef"/>
        <path id="Path_55" data-name="Path 55" d="M168.245,156.573l-13.163,7.313a2.216,2.216,0,0,1-3.292-1.937V147.323a2.216,2.216,0,0,1,3.292-1.937l13.163,7.313A2.216,2.216,0,0,1,168.245,156.573Z" transform="translate(-112.205 -121.647)" fill="#fff"/>
        <path id="Path_56" data-name="Path 56" d="M380.784,117.28H354.393a2.2,2.2,0,0,1-2.2-2.2v-13.2a2.2,2.2,0,0,1,2.2-2.2h26.391a2.2,2.2,0,0,1,2.2,2.2v13.2A2.2,2.2,0,0,1,380.784,117.28Z" transform="translate(-257.627 -88.69)" fill="#49b1ef"/>
        <path id="Path_57" data-name="Path 57" d="M62.976,137.072a8.8,8.8,0,0,1-8.8-8.8V99.685h-4.4a2.2,2.2,0,0,0-2.2,2.2V141.47a2.2,2.2,0,0,0,2.2,2.2h70.376a2.2,2.2,0,0,0,2.2-2.2v-4.4Z" transform="translate(-36.585 -88.689)" fill="#1786c8"/>
        <path id="Path_58" data-name="Path 58" d="M365.389,110.681a6.6,6.6,0,0,1-6.6-6.6v-4.4h-4.4a2.2,2.2,0,0,0-2.2,2.2v13.2a2.2,2.2,0,0,0,2.2,2.2h26.391a2.2,2.2,0,0,0,2.2-2.2v-4.4Z" transform="translate(-257.627 -88.689)" fill="#1786c8"/>
        <path id="Path_59" data-name="Path 59" d="M380.784,213.473H354.393a2.2,2.2,0,0,1-2.2-2.2v-13.2a2.2,2.2,0,0,1,2.2-2.2h26.391a2.2,2.2,0,0,1,2.2,2.2v13.2A2.2,2.2,0,0,1,380.784,213.473Z" transform="translate(-257.627 -158.492)" fill="#49b1ef"/>
        <path id="Path_60" data-name="Path 60" d="M365.389,206.876a6.6,6.6,0,0,1-6.6-6.6v-4.4h-4.4a2.2,2.2,0,0,0-2.2,2.2v13.2a2.2,2.2,0,0,0,2.2,2.2h26.391a2.2,2.2,0,0,0,2.2-2.2v-4.4Z" transform="translate(-257.627 -158.493)" fill="#1786c8"/>
        <path id="Path_61" data-name="Path 61" d="M382.982,303.068l-30.789,6.6V294.271a2.2,2.2,0,0,1,2.2-2.2h26.391a2.2,2.2,0,0,1,2.2,2.2Z" transform="translate(-257.626 -228.294)" fill="#49b1ef"/>
        <path id="Path_62" data-name="Path 62" d="M365.389,303.069a6.6,6.6,0,0,1-6.6-6.6v-4.4h-4.4a2.2,2.2,0,0,0-2.2,2.2v15.395h30.789v-6.6H365.389Z" transform="translate(-257.627 -228.295)" fill="#1786c8"/>
        <path id="Path_63" data-name="Path 63" d="M155.082,180.262l13.163-7.313a2.216,2.216,0,0,0,0-3.874l-2.525-1.4-13.929,7.738v2.914A2.216,2.216,0,0,0,155.082,180.262Z" transform="translate(-112.204 -138.024)" fill="#ffe6e7"/>
      </g>
      <g id="Group_44" data-name="Group 44" transform="translate(0 52.105)">
        <path id="Path_64" data-name="Path 64" d="M148.563,160.78a4.268,4.268,0,0,0,2.076-.544l13.163-7.313a4.273,4.273,0,0,0,0-7.471L150.64,138.14a4.273,4.273,0,0,0-6.349,3.736V156.5a4.287,4.287,0,0,0,4.272,4.279Zm-.157-18.9a.14.14,0,0,1,.078-.136.16.16,0,0,1,.081-.025.15.15,0,0,1,.075.023L161.8,149.05a.158.158,0,0,1,0,.276l-13.163,7.313a.158.158,0,0,1-.235-.138V141.875Z" transform="translate(-104.704 -114.142)"/>
        <path id="Path_65" data-name="Path 65" d="M131.813,52.1H8.655A8.665,8.665,0,0,0,0,60.76v76.973a8.665,8.665,0,0,0,8.655,8.655H54.4l-3.37,13.479h-7.19a2.058,2.058,0,1,0,0,4.115H96.625a2.058,2.058,0,1,0,0-4.115h-7.19l-3.37-13.479h45.748a8.665,8.665,0,0,0,8.655-8.655V60.76A8.665,8.665,0,0,0,131.813,52.1ZM8.655,56.22H131.813a4.545,4.545,0,0,1,4.54,4.54v72.716H98.682V120.14a.142.142,0,0,1,.142-.142h26.391a.142.142,0,0,1,.142.142v6.6a2.058,2.058,0,1,0,4.115,0v-6.6a4.261,4.261,0,0,0-4.257-4.257H98.824a4.261,4.261,0,0,0-4.257,4.257v13.337H4.115V60.76a4.545,4.545,0,0,1,4.54-4.54ZM85.193,159.868H55.276l3.37-13.479H81.823Zm46.62-17.594H8.655a4.545,4.545,0,0,1-4.54-4.54v-.142H136.353v.142A4.545,4.545,0,0,1,131.813,142.274Z" transform="translate(0 -52.105)"/>
        <path id="Path_66" data-name="Path 66" d="M44.338,140.285h70.376a4.262,4.262,0,0,0,4.257-4.257V96.442a4.261,4.261,0,0,0-4.257-4.257H57.534a2.058,2.058,0,0,0,0,4.115h57.179a.142.142,0,0,1,.142.142v39.586a.142.142,0,0,1-.142.142H44.338a.142.142,0,0,1-.142-.142V96.442a.142.142,0,0,1,.142-.142h4.4a2.058,2.058,0,0,0,0-4.115h-4.4a4.262,4.262,0,0,0-4.257,4.257v39.586a4.262,4.262,0,0,0,4.257,4.257Z" transform="translate(-29.085 -81.189)"/>
        <path id="Path_67" data-name="Path 67" d="M348.95,113.894h26.391a4.261,4.261,0,0,0,4.257-4.257v-13.2a4.261,4.261,0,0,0-4.257-4.257H348.95a4.261,4.261,0,0,0-4.257,4.257v13.2A4.262,4.262,0,0,0,348.95,113.894Zm-.142-17.452a.142.142,0,0,1,.142-.142h26.391a.142.142,0,0,1,.142.142v13.2a.142.142,0,0,1-.142.142H348.95a.142.142,0,0,1-.142-.142Z" transform="translate(-250.126 -81.189)"/>
        <path id="Path_68" data-name="Path 68" d="M348.95,210.087h26.391a4.262,4.262,0,0,0,4.257-4.257v-13.2a4.262,4.262,0,0,0-4.257-4.257H348.95a4.262,4.262,0,0,0-4.257,4.257v13.2A4.262,4.262,0,0,0,348.95,210.087Zm-.142-17.452a.142.142,0,0,1,.142-.142h26.391a.142.142,0,0,1,.142.142v13.2a.142.142,0,0,1-.142.142H348.95a.142.142,0,0,1-.142-.142Z" transform="translate(-250.126 -150.991)"/>
        <path id="Path_69" data-name="Path 69" d="M42.139,288.688h74.774a2.058,2.058,0,0,0,0-4.115H42.139a2.058,2.058,0,0,0,0,4.115Z" transform="translate(-29.085 -220.795)"/>
        <path id="Path_70" data-name="Path 70" d="M42.139,320.752h8.8a2.058,2.058,0,1,0,0-4.115h-8.8a2.058,2.058,0,1,0,0,4.115Z" transform="translate(-29.085 -244.062)"/>
        <path id="Path_71" data-name="Path 71" d="M145.853,316.637H106.267a2.058,2.058,0,1,0,0,4.115h39.587a2.058,2.058,0,0,0,0-4.115Z" transform="translate(-75.619 -244.062)"/>
      </g>
    </g>
  </g>
</svg>
