<svg id="mainBg" xmlns="http://www.w3.org/2000/svg" xmlns:xlink="http://www.w3.org/1999/xlink" width="3354" height="1263" viewBox="0 0 3354 1263">
  <defs>
    <clipPath id="clip-path">
      <rect id="Rectangle_15" data-name="Rectangle 15" width="1245" height="1234" transform="translate(-0.336 0.333)" fill="none"/>
    </clipPath>
  </defs>
  <g id="Group_61" data-name="Group 61" transform="translate(976.667 -142.333)">
    <g id="Group_60" data-name="Group 60" transform="translate(-976.331 142)" clip-path="url(#clip-path)">
      <g id="Group_59" data-name="Group 59" transform="translate(72.22 100.807)">
        <path id="Path_72" data-name="Path 72" d="M102.206,192.276A520.665,520.665,0,0,1,470.155,40.989" transform="translate(79.789 -40.989)" fill="none" stroke="rgba(25,24,24,0.12)" stroke-miterlimit="10" stroke-width="1"/>
        <path id="Path_73" data-name="Path 73" d="M770.355,250c0,142.635-58.242,271.767-152.409,365.239A520.658,520.658,0,0,1,250,766.529" transform="translate(299.944 266.526)" fill="none" stroke="rgba(25,24,24,0.12)" stroke-miterlimit="10" stroke-width="1"/>
        <g id="Group_46" data-name="Group 46" transform="translate(161.908 170.506)">
          <rect id="Rectangle_10" data-name="Rectangle 10" width="115.721" height="78.806" fill="none" stroke="rgba(25,24,24,0.12)" stroke-linecap="round" stroke-linejoin="round" stroke-width="1"/>
          <rect id="Rectangle_11" data-name="Rectangle 11" width="115.721" height="20.035" fill="rgba(25,24,24,0.15)"/>
          <line id="Line_1" data-name="Line 1" x2="56.515" transform="translate(14.203 39.403)" stroke-dasharray="0 5" stroke="rgba(25,24,24,0.12)" stroke-linecap="round" stroke-linejoin="round" stroke-width="1.5" fill="none"/>
        </g>
        <g id="Group_47" data-name="Group 47" transform="translate(267.521 812.893)">
          <path id="Path_74" data-name="Path 74" d="M174.34,402.369a9.983,9.983,0,0,1-2.968,7.112,10.187,10.187,0,0,1-14.33,0,10.007,10.007,0,0,1,0-14.225,10.187,10.187,0,0,1,14.33,0A9.987,9.987,0,0,1,174.34,402.369Z" transform="translate(-110.467 -336.986)" fill="rgba(255,255,255,0.8)" stroke="rgba(25,24,24,0.12)" stroke-linecap="round" stroke-linejoin="round" stroke-width="1"/>
          <path id="Path_75" data-name="Path 75" d="M147.432,396.266a37.868,37.868,0,0,1,53.342,0" transform="translate(-120.363 -347.3)" fill="none" stroke="rgba(25,24,24,0.12)" stroke-linecap="round" stroke-linejoin="round" stroke-width="1"/>
          <path id="Path_76" data-name="Path 76" d="M141.995,394.145a57.086,57.086,0,0,1,80.414,0" transform="translate(-128.461 -358.613)" fill="none" stroke="rgba(25,24,24,0.12)" stroke-linecap="round" stroke-linejoin="round" stroke-width="1"/>
          <path id="Path_77" data-name="Path 77" d="M136.559,392.02a76.3,76.3,0,0,1,107.481,0" transform="translate(-136.559 -369.924)" fill="none" stroke="rgba(25,24,24,0.12)" stroke-linecap="round" stroke-linejoin="round" stroke-width="1"/>
        </g>
        <path id="Path_93" data-name="Path 93" d="M314.775,0C488.62,0,629.55,139.893,629.55,312.459S488.62,624.917,314.775,624.917,0,485.025,0,312.459,140.929,0,314.775,0Z" transform="translate(235.169 204.068)" fill="none" stroke="rgba(25,24,24,0.12)" stroke-width="1"/>
        <path id="Path_78" data-name="Path 78" d="M188.172,122.008a397.018,397.018,0,0,1,433.552,84.125,393.047,393.047,0,0,1,84.749,124.773" transform="translate(207.845 32.825)" fill="none" stroke="rgba(25,24,24,0.12)" stroke-miterlimit="10" stroke-width="1"/>
        <path id="Path_79" data-name="Path 79" d="M621.724,362.317a398.153,398.153,0,0,1-433.552,84.125" transform="translate(207.845 431.777)" fill="none" stroke="rgba(25,24,24,0.12)" stroke-miterlimit="10" stroke-width="1"/>
        <g id="Group_48" data-name="Group 48" transform="translate(976.124 383.665)">
          <path id="Path_80" data-name="Path 80" d="M573.837,206.62,543.8,228.644V207a10.8,10.8,0,0,0-10.845-10.765H432.029A10.8,10.8,0,0,0,421.184,207v84.118a10.806,10.806,0,0,0,10.845,10.765H532.955A10.806,10.806,0,0,0,543.8,291.121V269.479L573.837,291.5Z" transform="translate(-421.184 -196.238)" fill="none" stroke="rgba(25,24,24,0.12)" stroke-miterlimit="10" stroke-width="1"/>
          <path id="Path_81" data-name="Path 81" d="M437.331,264.514v-58.8l53.324,29.4Z" transform="translate(-397.131 -182.292)" fill="rgba(23,134,200,0.2)" stroke="rgba(25,24,24,0.12)" stroke-miterlimit="10" stroke-width="1"/>
        </g>
        <g id="Group_49" data-name="Group 49" transform="translate(612.981 767.626)">
          <path id="Path_94" data-name="Path 94" d="M48.547,0A48.191,48.191,0,1,1,0,48.19,48.37,48.37,0,0,1,48.547,0Z" fill="rgba(255,255,255,0.8)" stroke="rgba(25,24,24,0.12)" stroke-width="1"/>
          <path id="Path_82" data-name="Path 82" d="M289.406,402.951V363.03l36.2,19.96Z" transform="translate(-254.338 -334.8)" fill="#cbe2ef" stroke="rgba(25,24,24,0.12)" stroke-miterlimit="10" stroke-width="1"/>
        </g>
        <g id="Group_50" data-name="Group 50" transform="translate(395.895 93.133)">
          <path id="Path_83" data-name="Path 83" d="M268.158,84.866a21.413,21.413,0,0,0-30.119,0L231.26,91.6l-6.779-6.732a21.413,21.413,0,0,0-30.119,0,21.03,21.03,0,0,0,0,29.9l36.762,36.491.137-.133.137.133,36.761-36.491A21.03,21.03,0,0,0,268.158,84.866Z" transform="translate(-188.123 -78.675)" fill="#cbe2ef" stroke="rgba(25,24,24,0.12)" stroke-miterlimit="10" stroke-width="1"/>
        </g>
        <g id="Group_51" data-name="Group 51" transform="translate(278.124 499.327)">
          <path id="Path_84" data-name="Path 84" d="M220.853,249.233a21.408,21.408,0,0,0-30.119,0l-6.779,6.729-6.779-6.729a21.408,21.408,0,0,0-30.119,0,21.027,21.027,0,0,0,0,29.9l36.762,36.494.137-.136.137.136,36.762-36.494A21.027,21.027,0,0,0,220.853,249.233Z" transform="translate(-140.818 -243.04)" fill="rgba(255,255,255,0.8)" stroke="rgba(25,24,24,0.12)" stroke-linecap="round" stroke-linejoin="round" stroke-width="1"/>
        </g>
        <g id="Group_52" data-name="Group 52" transform="translate(534.662 71.022)">
          <line id="Line_2" data-name="Line 2" x2="33.214" transform="translate(0 16.485)" fill="none" stroke="rgba(25,24,24,0.3)" stroke-miterlimit="10" stroke-width="1"/>
          <line id="Line_3" data-name="Line 3" y2="32.97" transform="translate(16.607)" fill="none" stroke="rgba(25,24,24,0.3)" stroke-miterlimit="10" stroke-width="1"/>
        </g>
        <g id="Group_54" data-name="Group 54" transform="translate(113.083 361.059)">
          <line id="Line_6" data-name="Line 6" x2="33.214" transform="translate(0 16.485)" fill="none" stroke="rgba(25,24,24,0.12)" stroke-miterlimit="10" stroke-width="1"/>
          <line id="Line_7" data-name="Line 7" y2="32.97" transform="translate(16.607)" fill="none" stroke="rgba(25,24,24,0.12)" stroke-miterlimit="10" stroke-width="1"/>
        </g>
        <g id="Group_55" data-name="Group 55" transform="translate(721.796 390.929)">
          <path id="Path_85" data-name="Path 85" d="M366.846,233.6h40.038a9.407,9.407,0,0,1,9.56,8.832,9.145,9.145,0,0,1-9.177,9.391h4.446a9.4,9.4,0,0,1,9.56,8.832,9.141,9.141,0,0,1-9.174,9.391h-4.832a9.147,9.147,0,0,1,9.177,9.393,9.408,9.408,0,0,1-9.56,8.832h-6.707a7.537,7.537,0,0,1,7.534,8.252,7.771,7.771,0,0,1-7.86,6.774H351.227l-12.5-5.679H324.05V239.033h16.558L366.754,202a6.688,6.688,0,0,1,7.927-2.345h0a6.591,6.591,0,0,1,3.593,8.86L366.846,233.6" transform="translate(-311.546 -199.178)" fill="rgba(255,255,255,0.8)" stroke="rgba(25,24,24,0.12)" stroke-linecap="round" stroke-linejoin="round" stroke-width="1"/>
          <path id="Path_119" data-name="Path 119" d="M0,0H12.5V65.8H0Z" transform="translate(0 36.021)" fill="#cbe2ef" stroke="rgba(25,24,24,0.12)" stroke-width="1"/>
        </g>
        <g id="Group_57" data-name="Group 57" transform="translate(0 464.894)">
          <g id="Group_56" data-name="Group 56">
            <path id="Path_86" data-name="Path 86" d="M113.063,236.177l-76.89,36.966,76.89,36.967" transform="translate(-18.573 -218.705)" fill="none" stroke="rgba(25,24,24,0.12)" stroke-miterlimit="10" stroke-width="1"/>
            <path id="Path_87" data-name="Path 87" d="M59.988,276.5a17.6,17.6,0,1,1,17.6,17.47A17.538,17.538,0,0,1,59.988,276.5Z" transform="translate(16.901 -185.091)" fill="rgba(255,255,255,0.8)" stroke="rgba(25,24,24,0.12)" stroke-miterlimit="10" stroke-width="1"/>
            <path id="Path_88" data-name="Path 88" d="M59.988,246.579a17.6,17.6,0,1,1,17.6,17.47A17.538,17.538,0,0,1,59.988,246.579Z" transform="translate(16.901 -229.107)" fill="rgba(255,255,255,0.8)" stroke="rgba(25,24,24,0.12)" stroke-miterlimit="10" stroke-width="1"/>
            <path id="Path_89" data-name="Path 89" d="M29.1,261.536a17.6,17.6,0,1,1,17.6,17.47A17.536,17.536,0,0,1,29.1,261.536Z" transform="translate(-29.104 -207.098)" fill="rgba(255,255,255,0.8)" stroke="rgba(25,24,24,0.12)" stroke-miterlimit="10" stroke-width="1"/>
          </g>
        </g>
        <g id="Group_58" data-name="Group 58" transform="translate(750.399 62.674)">
          <path id="Path_90" data-name="Path 90" d="M467.706,204.4,357.073,167.244V106.6L467.706,69.445Z" transform="translate(-290.959 -61.796)" fill="none" stroke="rgba(25,24,24,0.12)" stroke-miterlimit="10" stroke-width="1"/>
          <rect id="Rectangle_13" data-name="Rectangle 13" width="11.559" height="150.25" transform="translate(176.747)" stroke-width="1" stroke="rgba(25,24,24,0.12)" stroke-linecap="round" stroke-linejoin="round" fill="rgba(255,255,255,0.8)"/>
          <path id="Path_91" data-name="Path 91" d="M390.374,84.479v60.646H334.717V84.479h55.656Z" transform="translate(-324.26 -39.677)" fill="rgba(25,24,24,0.2)"/>
          <line id="Line_8" data-name="Line 8" y1="60.646" transform="translate(28.071 44.802)" fill="#e0f2f1" stroke="rgba(25,24,24,0.12)" stroke-miterlimit="10" stroke-width="1"/>
          <path id="Path_92" data-name="Path 92" d="M340.975,89.269v36.97H330.517V89.269h10.458Z" transform="translate(-330.517 -32.629)" fill="rgba(255,255,255,0.8)" stroke="rgba(25,24,24,0.12)" stroke-miterlimit="10" stroke-width="1"/>
          <rect id="Rectangle_14" data-name="Rectangle 14" width="19.563" height="70.682" transform="translate(28.071 105.448)" stroke-width="1" stroke="rgba(25,24,24,0.12)" stroke-linecap="round" stroke-linejoin="round" fill="rgba(255,255,255,0.8)"/>
        </g>
      </g>
    </g>
    <g id="Group_75" data-name="Group 75" transform="translate(1132.669 171)" clip-path="url(#clip-path)">
      <g id="Group_74" data-name="Group 74" transform="translate(72.22 100.807)">
        <path id="Path_95" data-name="Path 95" d="M102.206,192.276A520.665,520.665,0,0,1,470.155,40.989" transform="translate(79.789 -40.989)" fill="none" stroke="rgba(25,24,24,0.12)" stroke-miterlimit="10" stroke-width="1"/>
        <path id="Path_96" data-name="Path 96" d="M770.355,250c0,142.635-58.242,271.767-152.409,365.239A520.658,520.658,0,0,1,250,766.529" transform="translate(299.944 266.526)" fill="none" stroke="rgba(25,24,24,0.12)" stroke-miterlimit="10" stroke-width="1"/>
        <g id="Group_62" data-name="Group 62" transform="translate(161.908 170.506)">
          <rect id="Rectangle_16" data-name="Rectangle 16" width="115.721" height="78.806" fill="none" stroke="rgba(25,24,24,0.12)" stroke-linecap="round" stroke-linejoin="round" stroke-width="1"/>
          <rect id="Rectangle_17" data-name="Rectangle 17" width="115.721" height="20.035" fill="rgba(25,24,24,0.15)"/>
          <line id="Line_9" data-name="Line 9" x2="56.515" transform="translate(14.203 39.403)" stroke-dasharray="0 5" stroke="rgba(25,24,24,0.12)" stroke-linecap="round" stroke-linejoin="round" stroke-width="1.5" fill="none"/>
        </g>
        <g id="Group_63" data-name="Group 63" transform="translate(267.521 812.893)">
          <path id="Path_97" data-name="Path 97" d="M174.34,402.369a9.983,9.983,0,0,1-2.968,7.112,10.187,10.187,0,0,1-14.33,0,10.007,10.007,0,0,1,0-14.225,10.187,10.187,0,0,1,14.33,0A9.987,9.987,0,0,1,174.34,402.369Z" transform="translate(-110.467 -336.986)" fill="rgba(255,255,255,0.8)" stroke="rgba(25,24,24,0.12)" stroke-linecap="round" stroke-linejoin="round" stroke-width="1"/>
          <path id="Path_98" data-name="Path 98" d="M147.432,396.266a37.868,37.868,0,0,1,53.342,0" transform="translate(-120.363 -347.3)" fill="none" stroke="rgba(25,24,24,0.12)" stroke-linecap="round" stroke-linejoin="round" stroke-width="1"/>
          <path id="Path_99" data-name="Path 99" d="M141.995,394.145a57.086,57.086,0,0,1,80.414,0" transform="translate(-128.461 -358.613)" fill="none" stroke="rgba(25,24,24,0.12)" stroke-linecap="round" stroke-linejoin="round" stroke-width="1"/>
          <path id="Path_100" data-name="Path 100" d="M136.559,392.02a76.3,76.3,0,0,1,107.481,0" transform="translate(-136.559 -369.924)" fill="none" stroke="rgba(25,24,24,0.12)" stroke-linecap="round" stroke-linejoin="round" stroke-width="1"/>
        </g>
        <path id="Path_101" data-name="Path 101" d="M314.775,0C488.62,0,629.55,139.893,629.55,312.459S488.62,624.917,314.775,624.917,0,485.025,0,312.459,140.929,0,314.775,0Z" transform="translate(235.169 204.068)" fill="none" stroke="rgba(25,24,24,0.12)" stroke-width="1"/>
        <path id="Path_102" data-name="Path 102" d="M188.172,122.008a397.018,397.018,0,0,1,433.552,84.125,393.047,393.047,0,0,1,84.749,124.773" transform="translate(207.845 32.825)" fill="none" stroke="rgba(25,24,24,0.12)" stroke-miterlimit="10" stroke-width="1"/>
        <path id="Path_103" data-name="Path 103" d="M621.724,362.317a398.153,398.153,0,0,1-433.552,84.125" transform="translate(207.845 431.777)" fill="none" stroke="rgba(25,24,24,0.12)" stroke-miterlimit="10" stroke-width="1"/>
        <g id="Group_64" data-name="Group 64" transform="translate(976.124 383.665)">
          <path id="Path_104" data-name="Path 104" d="M573.837,206.62,543.8,228.644V207a10.8,10.8,0,0,0-10.845-10.765H432.029A10.8,10.8,0,0,0,421.184,207v84.118a10.806,10.806,0,0,0,10.845,10.765H532.955A10.806,10.806,0,0,0,543.8,291.121V269.479L573.837,291.5Z" transform="translate(-421.184 -196.238)" fill="none" stroke="rgba(25,24,24,0.12)" stroke-miterlimit="10" stroke-width="1"/>
          <path id="Path_105" data-name="Path 105" d="M437.331,264.514v-58.8l53.324,29.4Z" transform="translate(-397.131 -182.292)" fill="rgba(190,19,19,0.2)" stroke="rgba(25,24,24,0.12)" stroke-miterlimit="10" stroke-width="1"/>
        </g>
        <g id="Group_65" data-name="Group 65" transform="translate(612.981 767.626)">
          <path id="Path_106" data-name="Path 106" d="M48.547,0A48.191,48.191,0,1,1,0,48.19,48.37,48.37,0,0,1,48.547,0Z" fill="rgba(255,255,255,0.8)" stroke="rgba(25,24,24,0.12)" stroke-width="1"/>
          <path id="Path_107" data-name="Path 107" d="M289.406,402.951V363.03l36.2,19.96Z" transform="translate(-254.338 -334.8)" fill="#e1edf3" stroke="rgba(25,24,24,0.12)" stroke-miterlimit="10" stroke-width="1"/>
        </g>
        <g id="Group_67" data-name="Group 67" transform="translate(278.124 499.327)">
          <path id="Path_109" data-name="Path 109" d="M220.853,249.233a21.408,21.408,0,0,0-30.119,0l-6.779,6.729-6.779-6.729a21.408,21.408,0,0,0-30.119,0,21.027,21.027,0,0,0,0,29.9l36.762,36.494.137-.136.137.136,36.762-36.494A21.027,21.027,0,0,0,220.853,249.233Z" transform="translate(-140.818 -243.04)" fill="rgba(255,255,255,0.8)" stroke="rgba(25,24,24,0.12)" stroke-linecap="round" stroke-linejoin="round" stroke-width="1"/>
        </g>
        <g id="Group_68" data-name="Group 68" transform="translate(534.662 71.022)">
          <line id="Line_10" data-name="Line 10" x2="33.214" transform="translate(0 16.485)" fill="none" stroke="rgba(25,24,24,0.3)" stroke-miterlimit="10" stroke-width="1"/>
          <line id="Line_11" data-name="Line 11" y2="32.97" transform="translate(16.607)" fill="none" stroke="rgba(25,24,24,0.3)" stroke-miterlimit="10" stroke-width="1"/>
        </g>
        <g id="Group_69" data-name="Group 69" transform="translate(113.083 361.059)">
          <line id="Line_12" data-name="Line 12" x2="33.214" transform="translate(0 16.485)" fill="none" stroke="rgba(25,24,24,0.12)" stroke-miterlimit="10" stroke-width="1"/>
          <line id="Line_13" data-name="Line 13" y2="32.97" transform="translate(16.607)" fill="none" stroke="rgba(25,24,24,0.12)" stroke-miterlimit="10" stroke-width="1"/>
        </g>
        <g id="Group_70" data-name="Group 70" transform="translate(721.796 390.929)">
          <path id="Path_110" data-name="Path 110" d="M366.846,233.6h40.038a9.407,9.407,0,0,1,9.56,8.832,9.145,9.145,0,0,1-9.177,9.391h4.446a9.4,9.4,0,0,1,9.56,8.832,9.141,9.141,0,0,1-9.174,9.391h-4.832a9.147,9.147,0,0,1,9.177,9.393,9.408,9.408,0,0,1-9.56,8.832h-6.707a7.537,7.537,0,0,1,7.534,8.252,7.771,7.771,0,0,1-7.86,6.774H351.227l-12.5-5.679H324.05V239.033h16.558L366.754,202a6.688,6.688,0,0,1,7.927-2.345h0a6.591,6.591,0,0,1,3.593,8.86L366.846,233.6" transform="translate(-311.546 -199.178)" fill="rgba(255,255,255,0.8)" stroke="rgba(25,24,24,0.12)" stroke-linecap="round" stroke-linejoin="round" stroke-width="1"/>
          <path id="Path_120" data-name="Path 120" d="M0,0H12.5V65.8H0Z" transform="translate(0 36.021)" fill="#cbe2ef" stroke="rgba(25,24,24,0.12)" stroke-width="1"/>
        </g>
        <g id="Group_72" data-name="Group 72" transform="translate(0 464.894)">
          <g id="Group_71" data-name="Group 71">
            <path id="Path_111" data-name="Path 111" d="M113.063,236.177l-76.89,36.966,76.89,36.967" transform="translate(-18.573 -218.705)" fill="none" stroke="rgba(25,24,24,0.12)" stroke-miterlimit="10" stroke-width="1"/>
            <path id="Path_112" data-name="Path 112" d="M59.988,276.5a17.6,17.6,0,1,1,17.6,17.47A17.538,17.538,0,0,1,59.988,276.5Z" transform="translate(16.901 -185.091)" fill="rgba(255,255,255,0.8)" stroke="rgba(25,24,24,0.12)" stroke-miterlimit="10" stroke-width="1"/>
            <path id="Path_113" data-name="Path 113" d="M59.988,246.579a17.6,17.6,0,1,1,17.6,17.47A17.538,17.538,0,0,1,59.988,246.579Z" transform="translate(16.901 -229.107)" fill="rgba(255,255,255,0.8)" stroke="rgba(25,24,24,0.12)" stroke-miterlimit="10" stroke-width="1"/>
            <path id="Path_114" data-name="Path 114" d="M29.1,261.536a17.6,17.6,0,1,1,17.6,17.47A17.536,17.536,0,0,1,29.1,261.536Z" transform="translate(-29.104 -207.098)" fill="rgba(255,255,255,0.8)" stroke="rgba(25,24,24,0.12)" stroke-miterlimit="10" stroke-width="1"/>
          </g>
        </g>
        <g id="Group_73" data-name="Group 73" transform="translate(750.399 62.674)">
          <path id="Path_115" data-name="Path 115" d="M467.706,204.4,357.073,167.244V106.6L467.706,69.445Z" transform="translate(-290.959 -61.796)" fill="none" stroke="rgba(25,24,24,0.12)" stroke-miterlimit="10" stroke-width="1"/>
          <rect id="Rectangle_19" data-name="Rectangle 19" width="11.559" height="150.25" transform="translate(176.747)" stroke-width="1" stroke="rgba(25,24,24,0.12)" stroke-linecap="round" stroke-linejoin="round" fill="rgba(255,255,255,0.8)"/>
          <path id="Path_116" data-name="Path 116" d="M390.374,84.479v60.646H334.717V84.479h55.656Z" transform="translate(-324.26 -39.677)" fill="rgba(25,24,24,0.2)"/>
          <line id="Line_14" data-name="Line 14" y1="60.646" transform="translate(28.071 44.802)" fill="#e0f2f1" stroke="rgba(25,24,24,0.12)" stroke-miterlimit="10" stroke-width="1"/>
          <path id="Path_117" data-name="Path 117" d="M340.975,89.269v36.97H330.517V89.269h10.458Z" transform="translate(-330.517 -32.629)" fill="rgba(255,255,255,0.8)" stroke="rgba(25,24,24,0.12)" stroke-miterlimit="10" stroke-width="1"/>
          <rect id="Rectangle_20" data-name="Rectangle 20" width="19.563" height="70.682" transform="translate(28.071 105.448)" stroke-width="1" stroke="rgba(25,24,24,0.12)" stroke-linecap="round" stroke-linejoin="round" fill="rgba(255,255,255,0.8)"/>
        </g>
      </g>
    </g>
  </g>
</svg>
