<svg id="Register_User_Button" data-name="Register User Button" xmlns="http://www.w3.org/2000/svg" width="22.717" height="22.377" viewBox="0 0 22.717 22.377">
  <path id="Path_24" data-name="Path 24" d="M17.335,293.98a5.337,5.337,0,0,0-3.909,1.683,8.18,8.18,0,0,0-5.133-1.786H8.279a8.119,8.119,0,0,0-5.861,2.461A8.693,8.693,0,0,0,0,302.5a.5.5,0,0,0,.142.347.484.484,0,0,0,.347.142l12.843-.024c.029.034.059.064.088.1a5.383,5.383,0,1,0,3.914-9.081ZM.993,302a7.651,7.651,0,0,1,2.123-4.986,7.135,7.135,0,0,1,5.162-2.163h.015a7.221,7.221,0,0,1,4.531,1.575,5.394,5.394,0,0,0-.186,5.553Zm16.342,1.761a4.4,4.4,0,1,1,4.4-4.4A4.4,4.4,0,0,1,17.335,303.766Zm0,0" transform="translate(0 -282.37)" fill="#fff"/>
  <path id="Path_25" data-name="Path 25" d="M84.621,10.409a5.172,5.172,0,1,0-5.172-5.172A5.172,5.172,0,0,0,84.621,10.409Zm0-9.365a4.193,4.193,0,1,1-4.193,4.193,4.193,4.193,0,0,1,4.193-4.193Zm0,0" transform="translate(-76.337 -0.066)" fill="#fff"/>
  <path id="Path_26" data-name="Path 26" d="M383.957,372.81h-1.492v-1.492a.489.489,0,1,0-.979,0v1.492h-1.492a.489.489,0,0,0,0,.979h1.492v1.492a.489.489,0,0,0,.979,0v-1.492h1.492a.489.489,0,0,0,0-.979Zm0,0" transform="translate(-364.64 -356.307)" fill="#fff"/>
</svg>
