<svg xmlns="http://www.w3.org/2000/svg" width="125.314" height="141.252" viewBox="0 0 125.314 141.252">
  <g id="registerIcon" transform="translate(-2.29)">
    <g id="Group_22" data-name="Group 22" transform="translate(2.29 2.325)">
      <path id="Path_27" data-name="Path 27" d="M26.567,125.219c27.587,0,46.532,14.29,59.825,14.29s41.212-7.642,41.212-68.8S90.046.583,75.424.583C6.956.583-22.29,125.219,26.567,125.219Z" transform="translate(-2.29 -0.583)" fill="#def3ff"/>
    </g>
    <g id="Group_23" data-name="Group 23" transform="translate(20.078 38.886)">
      <path id="Path_28" data-name="Path 28" d="M60.593,9.75H52.616v3.988a3.99,3.99,0,0,1-3.988,3.988H26.692A3.99,3.99,0,0,1,22.7,13.738V9.75H14.727A8,8,0,0,0,6.75,17.727V67.581a8,8,0,0,0,7.977,7.977H60.593a8,8,0,0,0,7.977-7.977V17.727A8,8,0,0,0,60.593,9.75Z" transform="translate(-6.75 -9.75)" fill="#f3f3f1"/>
    </g>
    <g id="Group_24" data-name="Group 24" transform="translate(36.031 26.921)">
      <path id="Path_29" data-name="Path 29" d="M40.663,14.727V22.7a3.99,3.99,0,0,1-3.988,3.988H14.738A3.99,3.99,0,0,1,10.75,22.7V14.727h6.98a7.977,7.977,0,1,1,15.953,0Z" transform="translate(-10.75 -6.75)" fill="#1786c8"/>
    </g>
    <g id="Group_25" data-name="Group 25" transform="translate(67.049 73.482)">
      <path id="Path_30" data-name="Path 30" d="M30.512,59.488,18.527,61.6l2.114-11.985L50.254,20c1.559-1.559,3.378-2.261,4.934-.706l4.934,4.934a3.984,3.984,0,0,1,0,5.64Z" transform="translate(-18.527 -18.424)" fill="#1786c8"/>
    </g>
    <g id="Group_26" data-name="Group 26" transform="translate(61.956 38.886)">
      <path id="Path_31" data-name="Path 31" d="M30.212,13.738V9.85a7.472,7.472,0,0,0-1-.1H21.238v3.988a3.99,3.99,0,0,1-3.988,3.988h8.974A3.99,3.99,0,0,0,30.212,13.738Z" transform="translate(-17.25 -9.75)" fill="#d5dbe1"/>
    </g>
    <g id="Group_27" data-name="Group 27" transform="translate(20.078 38.886)">
      <path id="Path_32" data-name="Path 32" d="M15.724,67.581V17.727A7.982,7.982,0,0,1,22.7,9.85v-.1H14.727A8,8,0,0,0,6.75,17.727V67.581a8,8,0,0,0,7.977,7.977H23.7A8,8,0,0,1,15.724,67.581Z" transform="translate(-6.75 -9.75)" fill="#d5dbe1"/>
    </g>
    <g id="Group_28" data-name="Group 28" transform="translate(36.031 26.921)">
      <path id="Path_33" data-name="Path 33" d="M19.724,22.7V14.727H26.7a7.982,7.982,0,0,1,3.49-6.581,7.911,7.911,0,0,0-4.487-1.4,8,8,0,0,0-7.977,7.977H10.75V22.7a3.99,3.99,0,0,0,3.988,3.988h8.974A3.99,3.99,0,0,1,19.724,22.7Z" transform="translate(-10.75 -6.75)" fill="#49b1ef"/>
    </g>
    <g id="Group_29" data-name="Group 29" transform="translate(67.053 73.48)">
      <path id="Path_34" data-name="Path 34" d="M29.616,49.618,57.562,21.671,55.189,19.3c-1.559-1.559-3.378-.854-4.934.706L20.642,49.618,18.528,61.6l9.261-1.635Z" transform="translate(-18.528 -18.424)" fill="#49b1ef"/>
    </g>
    <g id="Group_30" data-name="Group 30" transform="translate(64.059 70.493)">
      <path id="Path_35" data-name="Path 35" d="M20.767,66.832a2.991,2.991,0,0,1-2.943-3.51l2.114-11.985a2.974,2.974,0,0,1,.83-1.6L50.381,20.129c3.641-3.641,7.211-2.664,9.165-.706l4.934,4.934a6.983,6.983,0,0,1,0,9.871L34.866,63.841a2.974,2.974,0,0,1-1.6.83L21.286,66.785a2.85,2.85,0,0,1-.518.048Zm4.9-13.528-1.208,6.848L31.3,58.943,60.252,30a1,1,0,0,0,0-1.412l-4.9-4.9c-.04.076-.343.263-.746.666Z" transform="translate(-17.777 -17.675)"/>
    </g>
    <g id="Group_31" data-name="Group 31" transform="translate(17.087 35.895)">
      <path id="Path_36" data-name="Path 36" d="M45.923,80.79H16.968A10.977,10.977,0,0,1,6,69.822V19.968A10.977,10.977,0,0,1,16.968,9h7.5v5.983h-7.5a4.992,4.992,0,0,0-4.985,4.985V69.822a4.992,4.992,0,0,0,4.985,4.985H45.923Z" transform="translate(-6 -9)"/>
    </g>
    <g id="Group_32" data-name="Group 32" transform="translate(66.462 35.895)">
      <path id="Path_37" data-name="Path 37" d="M36.806,48.126H30.824V19.968a4.992,4.992,0,0,0-4.985-4.985H18.38V9h7.458A10.977,10.977,0,0,1,36.806,19.968Z" transform="translate(-18.38 -9)"/>
    </g>
    <g id="Group_33" data-name="Group 33" transform="translate(33.04 23.93)">
      <path id="Path_38" data-name="Path 38" d="M38.916,31.924H16.98A6.987,6.987,0,0,1,10,24.945V16.968a2.992,2.992,0,0,1,2.991-2.991h4.4a10.969,10.969,0,0,1,21.106,0h4.4A2.992,2.992,0,0,1,45.9,16.968v7.977A6.987,6.987,0,0,1,38.916,31.924ZM15.983,19.959v4.985a1,1,0,0,0,1,1H38.916a1,1,0,0,0,1-1V19.959H35.924a2.992,2.992,0,0,1-2.991-2.991,4.985,4.985,0,0,0-9.971,0,2.992,2.992,0,0,1-2.991,2.991Z" transform="translate(-10 -6)"/>
    </g>
    <g id="Group_34" data-name="Group 34" transform="translate(32.043 55.837)">
      <path id="Path_39" data-name="Path 39" d="M9.75,14H47.639v5.983H9.75Z" transform="translate(-9.75 -14)"/>
    </g>
    <g id="Group_35" data-name="Group 35" transform="translate(32.043 67.802)">
      <path id="Path_40" data-name="Path 40" d="M9.75,17H47.639v5.983H9.75Z" transform="translate(-9.75 -17)"/>
    </g>
    <g id="Group_36" data-name="Group 36" transform="translate(32.043 79.767)">
      <path id="Path_41" data-name="Path 41" d="M9.75,20H47.639v5.983H9.75Z" transform="translate(-9.75 -20)"/>
    </g>
    <g id="Group_37" data-name="Group 37" transform="translate(100.1 46.983)">
      <path id="Path_42" data-name="Path 42" d="M32.8,23.745a5.983,5.983,0,1,1,5.983-5.983A5.99,5.99,0,0,1,32.8,23.745Zm0-7.977a1.994,1.994,0,1,0,1.994,1.994A2,2,0,0,0,32.8,15.768Z" transform="translate(-26.814 -11.78)" fill="#a4afc1"/>
    </g>
    <g id="Group_41" data-name="Group 41" transform="translate(35.533)">
      <g id="Group_38" data-name="Group 38" transform="translate(22.933 12.962)">
        <path id="Path_43" data-name="Path 43" d="M16.375,3.25h7.977V7.238H16.375Z" transform="translate(-16.375 -3.25)" fill="#a4afc1"/>
      </g>
      <g id="Group_39" data-name="Group 39" transform="translate(0 12.962)">
        <path id="Path_44" data-name="Path 44" d="M10.625,3.25H18.6V7.238H10.625Z" transform="translate(-10.625 -3.25)" fill="#a4afc1"/>
      </g>
      <g id="Group_40" data-name="Group 40" transform="translate(13.959)">
        <path id="Path_45" data-name="Path 45" d="M14.125,0h3.988V7.977H14.125Z" transform="translate(-14.125)" fill="#a4afc1"/>
      </g>
    </g>
  </g>
</svg>
